<?xml version="1.0" encoding="utf-8"?>
<!-- Generator: Adobe Illustrator 19.0.0, SVG Export Plug-In . SVG Version: 6.00 Build 0)  -->
<svg version="1.1" id="Layer_5" xmlns="http://www.w3.org/2000/svg" xmlns:xlink="http://www.w3.org/1999/xlink" x="0px" y="0px"
	 viewBox="0 0 32 32" style="enable-background:new 0 0 32 32;" xml:space="preserve">
<style type="text/css">
	.st0{fill:#00AAFF;}
	.st1{fill:#FFFFFF;}
</style>
<rect id="XMLID_208_" x="-8.5" y="-8.5" class="st0" width="49" height="49"/>
<g id="XMLID_234_">
	<path id="XMLID_237_" class="st1" d="M11.5,6.5v3.7H7.1V6.5H11.5z M11.4,12.2v13.6H7.2V12.2H11.4z"/>
	<path id="XMLID_235_" class="st1" d="M12.9,15.5v-3.3h2.2v-0.7c0-1,0.2-1.8,0.5-2.5s0.7-1.3,1.3-1.7c0.5-0.5,1.1-0.8,1.8-1
		c0.7-0.2,1.3-0.3,2-0.3c0.7,0,1.5,0.1,2.2,0.3c0.8,0.2,1.4,0.6,2.1,1.1l-0.9,1.3L23.2,10c-0.3-0.2-0.6-0.4-1-0.5s-0.7-0.2-1.1-0.2
		c-0.6,0-1,0.2-1.4,0.6c-0.3,0.4-0.5,0.9-0.5,1.6v0.8h3.2v3.3h-3.2v10.3h-4.1V15.5H12.9z"/>
</g>
</svg>
