<?xml version="1.0" encoding="utf-8"?>
<!-- Generator: Adobe Illustrator 19.0.0, SVG Export Plug-In . SVG Version: 6.00 Build 0)  -->
<svg version="1.1" id="Layer_1" xmlns="http://www.w3.org/2000/svg" xmlns:xlink="http://www.w3.org/1999/xlink" x="0px" y="0px"
	 viewBox="0 0 50 50" style="enable-background:new 0 0 50 50;" xml:space="preserve">
<style type="text/css">
	.st0{fill:#1E3246;}
	.st1{fill:#FFFFFF;}
</style>
<g id="XMLID_1_">
</g>
<g id="XMLID_21_">
</g>
<g id="XMLID_22_">
</g>
<g id="XMLID_23_">
</g>
<g id="XMLID_24_">
</g>
<g id="XMLID_25_">
</g>
<g id="XMLID_26_">
</g>
<g id="XMLID_27_">
</g>
<g id="XMLID_28_">
</g>
<g id="XMLID_29_">
</g>
<g id="XMLID_30_">
</g>
<g id="XMLID_31_">
</g>
<g id="XMLID_32_">
</g>
<g id="XMLID_33_">
</g>
<g id="XMLID_34_">
</g>
<g>
	<g>
		<path class="st0" d="M-74.7,43.3C-85.3,43.3-94,34.6-94,24s8.6-19.2,19.2-19.2c10.6,0,19.2,8.6,19.2,19.2S-64.1,43.3-74.7,43.3z"
			/>
	</g>
	<g>
		<path class="st0" d="M-24.7,43.3c-10.6,0-19.2-8.6-19.2-19.2s8.6-19.2,19.2-19.2c10.6,0,19.2,8.6,19.2,19.2S-14.1,43.3-24.7,43.3z
			"/>
	</g>
	<g>
		<path class="st0" d="M22.8,43.3C12.2,43.3,3.5,34.6,3.5,24S12.2,4.8,22.8,4.8C33.4,4.8,42,13.4,42,24S33.4,43.3,22.8,43.3z"/>
	</g>
	<g>
		<path class="st1" d="M-79.4,15.7c0,1.2-0.9,2.2-2.4,2.2c-1.4,0-2.3-1-2.3-2.2c0-1.2,0.9-2.2,2.3-2.2
			C-80.3,13.5-79.4,14.5-79.4,15.7z M-84,33.8V19.6h4.4v14.1H-84z"/>
		<path class="st1" d="M-76.9,24.1c0-1.8-0.1-3.2-0.1-4.5h3.8l0.2,2h0.1c0.6-0.9,2-2.3,4.4-2.3c2.9,0,5.1,1.9,5.1,6.1v8.4h-4.4v-7.8
			c0-1.8-0.6-3.1-2.2-3.1c-1.2,0-1.9,0.8-2.3,1.7c-0.1,0.3-0.1,0.7-0.1,1.1v8.2h-4.4V24.1z"/>
	</g>
	<g>
		<polygon class="st1" points="-22.3,26.7 -31.3,25.8 -31.5,27.8 -22.4,28.6 		"/>
		<polygon class="st1" points="-22.5,29.2 -31.6,29.2 -31.6,31.1 -22.5,31.1 		"/>
		<polygon class="st1" points="-20.5,21.9 -28.4,17.2 -29.4,18.9 -21.5,23.6 		"/>
		<polygon class="st1" points="-21.6,24.1 -30.5,21.8 -31,23.6 -22.1,26 		"/>
		<polygon class="st1" points="-20.9,32.7 -32.9,32.7 -32.9,24.7 -34.5,24.7 -34.5,34.2 -34.4,34.2 -34,34.2 -19.4,34.2 -19.4,34.2 
			-19.4,33.8 -19.4,24.7 -20.9,24.7 		"/>
		<polygon class="st1" points="-17.9,11.1 -19.8,11.4 -18.2,20.4 -16.3,20.1 		"/>
		<polygon class="st1" points="-25.3,14.1 -20.2,21.6 -18.6,20.5 -23.7,13 		"/>
	</g>
	<g>
		<path class="st1" d="M31.8,20.5c0.2-0.7,0.3-1.4,0.3-2.2c0-1-0.2-1.9-0.7-2.8c-0.9,0-1.7,0.2-2.4,0.5c-0.7,0.3-1.5,0.9-2.4,1.6
			c-1.1-0.3-2.3-0.4-3.6-0.4c-1.4,0-2.7,0.2-4,0.5c-0.9-0.7-1.7-1.3-2.4-1.6c-0.7-0.3-1.5-0.5-2.5-0.5c-0.4,0.9-0.7,1.8-0.7,2.8
			c0,0.8,0.1,1.5,0.3,2.2c-1.2,1.4-1.8,3.1-1.8,5.1c0,1.8,0.3,3.2,0.8,4.3c0.3,0.6,0.7,1.1,1.1,1.5c0.5,0.4,1,0.8,1.6,1
			c0.6,0.3,1.2,0.5,1.8,0.7s1.3,0.3,2,0.4c0.7,0.1,1.4,0.1,1.9,0.2c0.6,0,1.2,0,1.8,0c0.8,0,1.5,0,2.2-0.1c0.6,0,1.4-0.1,2.2-0.3
			c0.8-0.2,1.6-0.4,2.2-0.6c0.6-0.3,1.2-0.6,1.8-1.1c0.6-0.5,1-1.1,1.4-1.7c0.5-1.1,0.8-2.5,0.8-4.3C33.5,23.6,33,21.9,31.8,20.5z
			 M30.2,29.9c-0.3,0.6-0.6,1-1,1.3c-0.4,0.3-0.9,0.6-1.6,0.8c-0.6,0.2-1.2,0.3-1.8,0.4c-0.6,0.1-1.2,0.1-1.9,0.1h-2.2
			c-0.7,0-1.3,0-1.9-0.1S18.6,32.2,18,32c-0.6-0.2-1.2-0.5-1.6-0.8c-0.4-0.3-0.8-0.8-1-1.3c-0.3-0.6-0.4-1.2-0.4-2
			c0-1,0.3-1.9,0.9-2.6c0.6-0.7,1.4-1.1,2.4-1.1c0.4,0,1.2,0.1,2.5,0.3c0.6,0.1,1.3,0.1,2,0.1c0.7,0,1.4,0,2-0.1
			c1.3-0.2,2.2-0.3,2.5-0.3c1,0,1.8,0.4,2.4,1.1c0.6,0.7,0.9,1.6,0.9,2.6C30.6,28.7,30.5,29.4,30.2,29.9z"/>
		<path class="st1" d="M19.6,25.9c-0.3-0.3-0.6-0.4-0.9-0.4c-0.4,0-0.7,0.1-0.9,0.4c-0.3,0.3-0.4,0.6-0.6,1C17.1,27.3,17,27.6,17,28
			c0,0.3,0.1,0.7,0.2,1.1c0.1,0.4,0.3,0.7,0.6,1c0.3,0.3,0.6,0.4,0.9,0.4c0.4,0,0.7-0.1,0.9-0.4c0.3-0.3,0.4-0.6,0.6-1
			c0.1-0.4,0.2-0.7,0.2-1.1c0-0.3-0.1-0.7-0.2-1.1C20,26.5,19.9,26.2,19.6,25.9z"/>
		<path class="st1" d="M27.9,25.9c-0.3-0.3-0.6-0.4-0.9-0.4s-0.7,0.1-0.9,0.4c-0.3,0.3-0.4,0.6-0.6,1c-0.1,0.4-0.2,0.7-0.2,1.1
			c0,0.3,0.1,0.7,0.2,1.1c0.1,0.4,0.3,0.7,0.6,1c0.3,0.3,0.6,0.4,0.9,0.4s0.7-0.1,0.9-0.4c0.3-0.3,0.4-0.6,0.6-1
			c0.1-0.4,0.2-0.7,0.2-1.1c0-0.3-0.1-0.7-0.2-1.1C28.3,26.5,28.1,26.2,27.9,25.9z"/>
	</g>
</g>
</svg>
