<?xml version="1.0" encoding="utf-8"?>
<!-- Generator: Adobe Illustrator 19.0.0, SVG Export Plug-In . SVG Version: 6.00 Build 0)  -->
<svg version="1.1" id="Layer_1" xmlns="http://www.w3.org/2000/svg" xmlns:xlink="http://www.w3.org/1999/xlink" x="0px" y="0px"
	 viewBox="25 -25 100 100" style="enable-background:new 25 -25 100 100;" xml:space="preserve">
<style type="text/css">
	.st0{fill:#FCCE00;}
	.st1{fill:#FFFFFF;}
	.st2{fill:#B1EB5B;}
</style>
<g id="XMLID_37_">
	<circle id="XMLID_33_" class="st0" cx="75.1" cy="24.6" r="48.1"/>
	<path id="XMLID_34_" class="st1" d="M75.1,74.3c-27.4,0-49.7-22.3-49.7-49.7S47.7-25,75.1-25s49.6,22.3,49.6,49.6
		S102.4,74.3,75.1,74.3z M75.1-22C49.4-22,28.4-1.1,28.4,24.6S49.3,71.2,75,71.2s46.6-20.9,46.6-46.6S100.8-22,75.1-22z"/>
</g>
<g id="XMLID_32_">
	<circle id="XMLID_28_" class="st2" cx="465.1" cy="24.6" r="48.1"/>
	<path id="XMLID_29_" class="st1" d="M465.1,74.3c-27.4,0-49.6-22.3-49.6-49.6S437.7-25,465.1-25s49.6,22.3,49.6,49.6
		S492.4,74.3,465.1,74.3z M465.1-22c-25.7,0-46.6,20.9-46.6,46.6s20.9,46.6,46.6,46.6s46.6-20.9,46.6-46.6S490.8-22,465.1-22z"/>
</g>
<g id="XMLID_17_">
	<path id="XMLID_18_" class="st1" d="M452.3,44v-6.6c0.9-0.8,2.3-2,4-3.4c1.7-1.5,3-2.6,4-3.4c0.9-0.8,2-1.8,3.3-3.1
		s2.2-2.3,2.8-3.1c1.6-2.3,2.4-4.2,2.4-5.9c0-2.9-1.3-4.4-3.9-4.4c-1.2,0-2.2,0.4-3,1.3s-1.1,2.2-1.1,3.8h-8.6
		c0-4.2,1.2-7.3,3.6-9.4c2.4-2.1,5.6-3.2,9.5-3.2s7,1.1,9.2,3.4s3.3,4.9,3.3,8.1c0,2.4-0.5,4.5-1.6,6.3c-0.6,1-1.2,1.9-1.6,2.7
		c-0.5,0.7-1.2,1.6-2.2,2.7c-1,1.1-1.8,1.9-2.3,2.3c-0.5,0.5-1.4,1.3-2.7,2.5c-1.3,1.2-2.1,1.9-2.5,2.3h13.5V44H452.3z"/>
</g>
<g id="XMLID_27_">
	<circle id="XMLID_23_" class="st2" cx="855.1" cy="24.6" r="48.1"/>
	<path id="XMLID_24_" class="st1" d="M855.1,74.3c-27.4,0-49.6-22.3-49.6-49.6S827.7-25,855.1-25s49.6,22.3,49.6,49.6
		S882.4,74.3,855.1,74.3z M855.1-22c-25.7,0-46.6,20.9-46.6,46.6s20.9,46.6,46.6,46.6s46.6-20.9,46.6-46.6S880.8-22,855.1-22z"/>
</g>
<g id="XMLID_14_">
	<path id="XMLID_15_" class="st1" d="M854.7,13.4c-2.4,0-3.7,1.3-4,3.8h-8.6c0-3.6,1.2-6.5,3.5-8.5s5.5-3,9.3-3s6.9,1,9,2.9
		s3.2,4.3,3.2,7.3c0,2.3-0.6,4.2-1.7,5.7s-2.3,2.4-3.5,2.9v0.2c3.9,1.5,5.8,4.5,5.8,9c0,3.4-1.1,6.1-3.4,8c-2.3,2-5.4,2.9-9.4,2.9
		s-7.3-1-9.8-3.1c-2.5-2-3.8-5.1-3.8-9.2h8.6c0,1.5,0.5,2.7,1.3,3.6c0.8,0.9,2,1.3,3.5,1.3s2.6-0.4,3.3-1.2s1.1-1.9,1.1-3.4
		s-0.5-2.6-1.6-3.3c-1-0.7-2.7-1.1-5.1-1.1H851V21h1.7c4,0,5.9-1.4,5.9-4.2c0-1.1-0.4-2-1.1-2.7C856.9,13.8,855.9,13.4,854.7,13.4z"
		/>
</g>
<g id="XMLID_38_">
</g>
<g id="XMLID_39_">
</g>
<g id="XMLID_40_">
</g>
<g id="XMLID_41_">
</g>
<g id="XMLID_42_">
</g>
<g id="XMLID_43_">
</g>
<g id="XMLID_44_">
</g>
<g id="XMLID_45_">
</g>
<g id="XMLID_46_">
</g>
<g id="XMLID_47_">
</g>
<g id="XMLID_48_">
</g>
<g id="XMLID_49_">
</g>
<g id="XMLID_50_">
</g>
<g id="XMLID_51_">
</g>
<g id="XMLID_52_">
</g>
</svg>
