<?xml version="1.0" encoding="utf-8"?>
<!-- Generator: Adobe Illustrator 19.0.0, SVG Export Plug-In . SVG Version: 6.00 Build 0)  -->
<svg version="1.1" id="Layer_5" xmlns="http://www.w3.org/2000/svg" xmlns:xlink="http://www.w3.org/1999/xlink" x="0px" y="0px"
	 viewBox="0 0 207 79.6" style="enable-background:new 0 0 207 79.6;" xml:space="preserve">
<style type="text/css">
	.st0{fill:#00AAFF;}
	.st1{fill:#FFFFFF;}
	.st2{fill:#1E3246;}
</style>
<rect id="XMLID_253_" x="-8.5" y="-7.8" class="st0" width="224" height="95.9"/>
<g id="XMLID_178_">
	<path id="XMLID_181_" class="st1" d="M127.4,17.9v6.5h-7.7v-6.5H127.4z M127.2,27.8v23.5h-7.2V27.8H127.2z"/>
	<path id="XMLID_179_" class="st1" d="M129.7,33.5v-5.7h3.8v-1.2c0-1.7,0.3-3.1,0.8-4.3s1.3-2.2,2.2-3c0.9-0.8,1.9-1.4,3.1-1.8
		c1.2-0.4,2.3-0.6,3.5-0.6c1.3,0,2.6,0.2,3.9,0.6c1.3,0.4,2.5,1,3.6,1.9l-1.5,2.3l-1.5,2.3c-0.5-0.4-1.1-0.7-1.7-0.9
		c-0.6-0.2-1.2-0.3-1.9-0.3c-1,0-1.8,0.3-2.4,1c-0.6,0.6-0.9,1.5-0.9,2.7v1.3h5.6v5.7h-5.6v17.9h-7.2V33.5H129.7z"/>
</g>
<g id="XMLID_131_">
	<g id="XMLID_337_">
		<path id="XMLID_358_" class="st2" d="M25.9,51c-1.6,0.8-3.5,1.2-5.6,1.2c-1.9,0-3.6-0.3-5.2-0.9c-1.6-0.6-2.9-1.5-4-2.6
			c-1.1-1.1-2-2.5-2.6-4c-0.6-1.5-0.9-3.2-0.9-5.1c0-1.7,0.3-3.4,1-4.9c0.6-1.5,1.5-2.8,2.6-4c1.1-1.1,2.5-2,4-2.7
			c1.6-0.7,3.3-1,5.1-1c2.1,0,4,0.4,5.6,1.1c1.6,0.7,2.9,1.6,4,2.8l-4.4,4.7c-0.5-0.6-1.2-1.1-2-1.6c-0.8-0.5-1.8-0.7-3.1-0.7
			c-0.9,0-1.6,0.2-2.3,0.5c-0.7,0.4-1.3,0.8-1.8,1.4c-0.5,0.6-0.9,1.2-1.1,2c-0.3,0.8-0.4,1.5-0.4,2.4c0,0.8,0.1,1.5,0.4,2.3
			c0.3,0.8,0.6,1.4,1.1,2c0.5,0.6,1.1,1.1,1.8,1.4s1.5,0.6,2.3,0.6c1.2,0,2.3-0.2,3.1-0.7c0.8-0.5,1.5-1,2-1.6l4.2,4.7
			C28.8,49.3,27.5,50.2,25.9,51z"/>
		<path id="XMLID_356_" class="st2" d="M39,27.8l0.3,3c0.6-0.8,1.4-1.6,2.5-2.3c1.1-0.7,2.4-1.1,4.1-1.1c0.6,0,1.2,0,1.6,0.1
			c0.5,0.1,0.9,0.2,1.3,0.4l-1.2,6.4C46.9,34,46,33.8,45,33.8c-1.7,0-3.1,0.5-4.1,1.5c-1.1,1-1.6,2.5-1.6,4.3v11.6h-7.2V27.8H39z"/>
		<path id="XMLID_353_" class="st2" d="M71.3,49.6c-0.5,0.4-1.2,0.8-2.1,1.1c-0.9,0.4-1.9,0.7-3,1c-1.2,0.3-2.5,0.4-4,0.4
			c-2,0-3.8-0.3-5.4-0.9c-1.6-0.6-3-1.5-4.1-2.6c-1.1-1.1-2-2.4-2.6-4c-0.6-1.6-0.9-3.3-0.9-5.1c0-1.6,0.3-3.2,0.8-4.7
			c0.6-1.5,1.3-2.9,2.4-4c1-1.1,2.3-2.1,3.8-2.7c1.5-0.7,3.2-1,5.1-1c1.9,0,3.6,0.3,5,1s2.7,1.6,3.6,2.8c1,1.2,1.7,2.6,2.2,4.3
			c0.5,1.7,0.8,3.5,0.8,5.4v1.2H56.2c0,1.3,0.6,2.4,1.7,3.3c1.1,1,2.6,1.4,4.5,1.4c1.9,0,3.4-0.3,4.6-0.8s2-1,2.6-1.4l3,4.6
			C72.2,49,71.8,49.2,71.3,49.6z M65.8,35.6c-0.2-0.5-0.5-1-0.9-1.4c-0.4-0.4-0.9-0.8-1.5-1.1c-0.6-0.3-1.3-0.4-2.2-0.4
			c-0.8,0-1.6,0.1-2.2,0.4c-0.6,0.3-1.2,0.6-1.6,1.1c-0.4,0.4-0.7,0.9-1,1.4c-0.2,0.5-0.3,1-0.3,1.5h9.9
			C66.1,36.6,66,36.1,65.8,35.6z"/>
		<path id="XMLID_350_" class="st2" d="M86.7,51.3c-1.2,0.5-2.6,0.8-4.1,0.8c-0.8,0-1.7-0.1-2.6-0.4c-0.9-0.2-1.8-0.6-2.6-1.2
			s-1.4-1.3-2-2.2c-0.5-0.9-0.8-2.1-0.8-3.5c0-1.4,0.3-2.6,0.8-3.7c0.6-1.1,1.3-2,2.3-2.7c1-0.7,2.1-1.3,3.4-1.6
			c1.3-0.4,2.8-0.6,4.3-0.6c0.8,0,1.7,0,2.5,0.1c0.9,0,1.4,0.1,1.7,0.1v-0.5c0-0.6-0.1-1.1-0.4-1.5c-0.3-0.4-0.6-0.8-1-1.1
			c-0.4-0.3-0.9-0.5-1.4-0.6c-0.5-0.1-1.1-0.2-1.7-0.2c-1.6,0-2.9,0.2-4,0.6c-1.1,0.4-1.9,0.9-2.7,1.4l-3-4.4
			c0.5-0.4,1.1-0.7,1.7-1.1c0.6-0.4,1.4-0.7,2.3-1c0.9-0.3,1.8-0.5,2.9-0.7c1.1-0.2,2.3-0.3,3.7-0.3c3.6,0,6.2,1,7.9,2.9
			c1.7,1.9,2.6,4.5,2.6,7.8v13.7h-6.8l-0.2-2.2C88.9,50.1,87.9,50.8,86.7,51.3z M88.8,40.8c-0.5,0-1-0.1-1.6-0.1
			c-2,0-3.4,0.3-4.3,0.8c-0.8,0.6-1.3,1.4-1.3,2.4c0,1.9,1.2,2.9,3.5,2.9c0.6,0,1.1-0.1,1.7-0.3c0.6-0.2,1-0.4,1.5-0.8
			c0.4-0.3,0.8-0.8,1-1.3c0.3-0.5,0.4-1.1,0.4-1.8V41C89.6,40.9,89.3,40.9,88.8,40.8z"/>
		<path id="XMLID_348_" class="st2" d="M98,33.5v-5.7h3.7v-7.1h7.2v7.1h6.1v5.7h-6.1v9.3c0,1.1,0.2,2,0.7,2.6
			c0.5,0.6,1.2,0.9,2.1,0.9c0.7,0,1.4-0.1,1.9-0.4c0.5-0.3,1-0.5,1.5-0.9l2.9,4.4c-2.3,1.8-4.8,2.7-7.4,2.7c-1.7,0-3.1-0.2-4.2-0.7
			c-1.1-0.5-2.1-1.2-2.8-2c-0.7-0.8-1.2-1.9-1.5-3.1c-0.3-1.2-0.5-2.5-0.5-4v-8.9H98z"/>
		<path id="XMLID_346_" class="st2" d="M153.2,55.9c0.5,0.2,1,0.4,1.6,0.4c0.8,0,1.4-0.2,1.9-0.7c0.5-0.5,1-1.3,1.5-2.5l0.7-1.9
			l-10.7-23.3h8.2l5.9,14.9l5.3-14.9h7.7l-9.6,23.4l-1.6,3.9c-0.5,1.3-1.2,2.4-1.9,3.5c-0.8,1-1.7,1.9-2.8,2.5c-1.1,0.6-2.5,1-4.1,1
			c-1.3,0-2.4-0.2-3.5-0.5c-1-0.3-2-0.8-2.9-1.5l2.9-5C152.3,55.4,152.7,55.6,153.2,55.9z"/>
		<g id="XMLID_338_">
			<path id="XMLID_344_" class="st2" d="M171.5,51.6v10.2h6.1v1.5h-7.8V51.6H171.5z"/>
			<path id="XMLID_342_" class="st2" d="M175.5,53.1v-1.5h10.1v1.5h-4.2v10.2h-1.7V53.1H175.5z"/>
			<path id="XMLID_339_" class="st2" d="M190.9,51.6c0.9,0,1.8,0.1,2.6,0.3c0.8,0.2,1.4,0.6,2,1.1c0.6,0.5,1,1.1,1.3,1.8
				c0.3,0.7,0.5,1.6,0.5,2.6c0,1-0.2,1.8-0.5,2.6c-0.3,0.7-0.8,1.3-1.3,1.8c-0.6,0.5-1.2,0.8-2,1.1c-0.8,0.2-1.6,0.4-2.6,0.4h-3.9
				V51.6H190.9z M194.2,60.7c0.8-0.7,1.2-1.8,1.2-3.2c0-1.4-0.4-2.5-1.2-3.3c-0.8-0.8-2-1.1-3.5-1.1h-2.1v8.7h2.2
				C192.3,61.8,193.4,61.4,194.2,60.7z"/>
		</g>
	</g>
</g>
</svg>
