<?xml version="1.0" encoding="utf-8"?>
<!-- Generator: Adobe Illustrator 19.0.0, SVG Export Plug-In . SVG Version: 6.00 Build 0)  -->
<svg version="1.1" id="Layer_1" xmlns="http://www.w3.org/2000/svg" xmlns:xlink="http://www.w3.org/1999/xlink" x="0px" y="0px"
	 viewBox="25 -25 100 100" style="enable-background:new 25 -25 100 100;" xml:space="preserve">
<style type="text/css">
	.st0{fill:#B1EB5B;}
	.st1{fill:#FFFFFF;}
	.st2{fill:#FCCE00;}
</style>
<g id="XMLID_37_">
	<circle id="XMLID_33_" class="st0" cx="-314.9" cy="24.6" r="48.1"/>
	<path id="XMLID_34_" class="st1" d="M-314.9,74.3c-27.4,0-49.6-22.3-49.6-49.6S-342.3-25-314.9-25s49.6,22.3,49.6,49.6
		S-287.6,74.3-314.9,74.3z M-314.9-22c-25.7,0-46.6,20.9-46.6,46.6s20.9,46.6,46.6,46.6s46.6-20.9,46.6-46.6S-289.2-22-314.9-22z"/>
</g>
<g id="XMLID_20_">
	<path id="XMLID_21_" class="st1" d="M-318.1,44.5V15.9h-6.3V7.6h15.5v36.9H-318.1z"/>
</g>
<g id="XMLID_32_">
	<circle id="XMLID_28_" class="st2" cx="75.1" cy="24.6" r="48.1"/>
	<path id="XMLID_29_" class="st1" d="M75.1,74.3c-27.4,0-49.7-22.3-49.7-49.7S47.7-25,75.1-25s49.6,22.3,49.6,49.6
		S102.4,74.3,75.1,74.3z M75.1-22C49.4-22,28.4-1.1,28.4,24.6S49.3,71.2,75,71.2s46.6-20.9,46.6-46.6S100.8-22,75.1-22z"/>
</g>
<g id="XMLID_27_">
	<circle id="XMLID_23_" class="st0" cx="465.1" cy="24.6" r="48.1"/>
	<path id="XMLID_24_" class="st1" d="M465.1,74.3c-27.4,0-49.6-22.3-49.6-49.6S437.7-25,465.1-25s49.6,22.3,49.6,49.6
		S492.4,74.3,465.1,74.3z M465.1-22c-25.7,0-46.6,20.9-46.6,46.6s20.9,46.6,46.6,46.6s46.6-20.9,46.6-46.6S490.8-22,465.1-22z"/>
</g>
<g id="XMLID_14_">
	<path id="XMLID_15_" class="st1" d="M464.7,13.4c-2.4,0-3.7,1.3-4,3.8h-8.6c0-3.6,1.2-6.5,3.5-8.5s5.5-3,9.3-3s6.9,1,9,2.9
		s3.2,4.3,3.2,7.3c0,2.3-0.6,4.2-1.7,5.7s-2.3,2.4-3.5,2.9v0.2c3.9,1.5,5.8,4.5,5.8,9c0,3.4-1.1,6.1-3.4,8c-2.3,2-5.4,2.9-9.4,2.9
		s-7.3-1-9.8-3.1c-2.5-2-3.8-5.1-3.8-9.2h8.6c0,1.5,0.5,2.7,1.3,3.6c0.8,0.9,2,1.3,3.5,1.3s2.6-0.4,3.3-1.2c0.7-0.8,1.1-1.9,1.1-3.4
		s-0.5-2.6-1.6-3.3c-1-0.7-2.7-1.1-5.1-1.1H461V21h1.7c4,0,5.9-1.4,5.9-4.2c0-1.1-0.4-2-1.1-2.7C466.9,13.8,465.9,13.4,464.7,13.4z"
		/>
</g>
<g id="XMLID_38_">
</g>
<g id="XMLID_39_">
</g>
<g id="XMLID_40_">
</g>
<g id="XMLID_41_">
</g>
<g id="XMLID_42_">
</g>
<g id="XMLID_43_">
</g>
<g id="XMLID_44_">
</g>
<g id="XMLID_45_">
</g>
<g id="XMLID_46_">
</g>
<g id="XMLID_47_">
</g>
<g id="XMLID_48_">
</g>
<g id="XMLID_49_">
</g>
<g id="XMLID_50_">
</g>
<g id="XMLID_51_">
</g>
<g id="XMLID_52_">
</g>
</svg>
