<?xml version="1.0" encoding="utf-8"?>
<!-- Generator: Adobe Illustrator 19.0.0, SVG Export Plug-In . SVG Version: 6.00 Build 0)  -->
<svg version="1.1" id="Layer_1" xmlns="http://www.w3.org/2000/svg" xmlns:xlink="http://www.w3.org/1999/xlink" x="0px" y="0px"
	 viewBox="25 -25 100 100" style="enable-background:new 25 -25 100 100;" xml:space="preserve">
<style type="text/css">
	.st0{fill:#00AAFF;}
	.st1{fill:#FFFFFF;}
	.st2{fill:#B1EB5B;}
</style>
<g id="XMLID_37_">
	<circle id="XMLID_33_" class="st0" cx="75.2" cy="25.1" r="48.1"/>
	<path id="XMLID_34_" class="st1" d="M75.2,74.8c-27.4,0-49.7-22.3-49.7-49.7s22.3-49.6,49.7-49.6s49.6,22.3,49.6,49.6
		S102.5,74.8,75.2,74.8z M75.2-21.5c-25.7,0-46.7,20.9-46.7,46.6s20.9,46.6,46.6,46.6s46.6-20.9,46.6-46.6S100.9-21.5,75.2-21.5z"/>
</g>
<g id="XMLID_32_">
	<circle id="XMLID_28_" class="st2" cx="515.1" cy="-25.4" r="48.1"/>
	<path id="XMLID_29_" class="st1" d="M515.1,24.3c-27.4,0-49.6-22.3-49.6-49.6S487.7-75,515.1-75c27.4,0,49.6,22.3,49.6,49.6
		S542.4,24.3,515.1,24.3z M515.1-72c-25.7,0-46.6,20.9-46.6,46.6s20.9,46.6,46.6,46.6c25.7,0,46.6-20.9,46.6-46.6S540.8-72,515.1-72
		z"/>
</g>
<g id="XMLID_17_">
	<path id="XMLID_18_" class="st1" d="M502.3-6v-6.6c0.9-0.8,2.3-2,4-3.4c1.7-1.5,3-2.6,4-3.4c0.9-0.8,2-1.8,3.3-3.1s2.2-2.3,2.8-3.1
		c1.6-2.3,2.4-4.2,2.4-5.9c0-2.9-1.3-4.4-3.9-4.4c-1.2,0-2.2,0.4-3,1.3s-1.1,2.2-1.1,3.8h-8.6c0-4.2,1.2-7.3,3.6-9.4
		c2.4-2.1,5.6-3.2,9.5-3.2c3.9,0,7,1.1,9.2,3.4c2.2,2.3,3.3,4.9,3.3,8.1c0,2.4-0.5,4.5-1.6,6.3c-0.6,1-1.2,1.9-1.6,2.7
		c-0.5,0.7-1.2,1.6-2.2,2.7s-1.8,1.9-2.3,2.3c-0.5,0.5-1.4,1.3-2.7,2.5c-1.3,1.2-2.1,1.9-2.5,2.3h13.5V-6H502.3z"/>
</g>
<g id="XMLID_27_">
	<circle id="XMLID_23_" class="st2" cx="905.1" cy="-25.4" r="48.1"/>
	<path id="XMLID_24_" class="st1" d="M905.1,24.3c-27.4,0-49.6-22.3-49.6-49.6S877.7-75,905.1-75s49.6,22.3,49.6,49.6
		S932.4,24.3,905.1,24.3z M905.1-72c-25.7,0-46.6,20.9-46.6,46.6s20.9,46.6,46.6,46.6s46.6-20.9,46.6-46.6S930.8-72,905.1-72z"/>
</g>
<g id="XMLID_14_">
	<path id="XMLID_15_" class="st1" d="M904.7-36.6c-2.4,0-3.7,1.3-4,3.8h-8.6c0-3.6,1.2-6.5,3.5-8.5s5.5-3,9.3-3s6.9,1,9,2.9
		c2.1,1.9,3.2,4.3,3.2,7.3c0,2.3-0.6,4.2-1.7,5.7s-2.3,2.4-3.5,2.9v0.2c3.9,1.5,5.8,4.5,5.8,9c0,3.4-1.1,6.1-3.4,8
		c-2.3,2-5.4,2.9-9.4,2.9s-7.3-1-9.8-3.1c-2.5-2-3.8-5.1-3.8-9.2h8.6c0,1.5,0.5,2.7,1.3,3.6s2,1.3,3.5,1.3s2.6-0.4,3.3-1.2
		s1.1-1.9,1.1-3.4c0-1.5-0.5-2.6-1.6-3.3c-1-0.7-2.7-1.1-5.1-1.1H901V-29h1.7c4,0,5.9-1.4,5.9-4.2c0-1.1-0.4-2-1.1-2.7
		C906.9-36.2,905.9-36.6,904.7-36.6z"/>
</g>
<g id="XMLID_38_">
</g>
<g id="XMLID_39_">
</g>
<g id="XMLID_40_">
</g>
<g id="XMLID_41_">
</g>
<g id="XMLID_42_">
</g>
<g id="XMLID_43_">
</g>
<g id="XMLID_44_">
</g>
<g id="XMLID_45_">
</g>
<g id="XMLID_46_">
</g>
<g id="XMLID_47_">
</g>
<g id="XMLID_48_">
</g>
<g id="XMLID_49_">
</g>
<g id="XMLID_50_">
</g>
<g id="XMLID_51_">
</g>
<g id="XMLID_52_">
</g>
</svg>
