<?xml version="1.0" encoding="utf-8"?>
<!-- Generator: Adobe Illustrator 19.0.0, SVG Export Plug-In . SVG Version: 6.00 Build 0)  -->
<svg version="1.1" id="Layer_1" xmlns="http://www.w3.org/2000/svg" xmlns:xlink="http://www.w3.org/1999/xlink" x="0px" y="0px"
	 viewBox="25 -25 100 100" style="enable-background:new 25 -25 100 100;" xml:space="preserve">
<style type="text/css">
	.st0{fill:#B1EB5B;}
	.st1{fill:#FFFFFF;}
	.st2{fill:#FCCE00;}
</style>
<g id="XMLID_37_">
	<circle id="XMLID_33_" class="st0" cx="-704.9" cy="24.6" r="48.1"/>
	<path id="XMLID_34_" class="st1" d="M-704.9,74.3c-27.4,0-49.6-22.3-49.6-49.6S-732.3-25-704.9-25s49.6,22.3,49.6,49.6
		S-677.6,74.3-704.9,74.3z M-704.9-22c-25.7,0-46.6,20.9-46.6,46.6s20.9,46.6,46.6,46.6s46.6-20.9,46.6-46.6S-679.2-22-704.9-22z"/>
</g>
<g id="XMLID_20_">
	<path id="XMLID_21_" class="st1" d="M-708.1,44.5V15.9h-6.3V7.6h15.5v36.9H-708.1z"/>
</g>
<g id="XMLID_32_">
	<circle id="XMLID_28_" class="st0" cx="-314.9" cy="24.6" r="48.1"/>
	<path id="XMLID_29_" class="st1" d="M-314.9,74.3c-27.4,0-49.6-22.3-49.6-49.6S-342.3-25-314.9-25s49.6,22.3,49.6,49.6
		S-287.6,74.3-314.9,74.3z M-314.9-22c-25.7,0-46.6,20.9-46.6,46.6s20.9,46.6,46.6,46.6s46.6-20.9,46.6-46.6S-289.2-22-314.9-22z"/>
</g>
<g id="XMLID_17_">
	<path id="XMLID_18_" class="st1" d="M-327.7,44v-6.6c0.9-0.8,2.3-2,4-3.4c1.7-1.5,3-2.6,4-3.4c0.9-0.8,2-1.8,3.3-3.1
		s2.2-2.3,2.8-3.1c1.6-2.3,2.4-4.2,2.4-5.9c0-2.9-1.3-4.4-3.9-4.4c-1.2,0-2.2,0.4-3,1.3s-1.1,2.2-1.1,3.8h-8.6
		c0-4.2,1.2-7.3,3.6-9.4c2.4-2.1,5.6-3.2,9.5-3.2s7,1.1,9.2,3.4s3.3,4.9,3.3,8.1c0,2.4-0.5,4.5-1.6,6.3c-0.6,1-1.2,1.9-1.6,2.7
		c-0.5,0.7-1.2,1.6-2.2,2.7c-1,1.1-1.8,1.9-2.3,2.3c-0.5,0.5-1.4,1.3-2.7,2.5c-1.3,1.2-2.1,1.9-2.5,2.3h13.5V44H-327.7z"/>
</g>
<g id="XMLID_27_">
	<circle id="XMLID_23_" class="st2" cx="75.1" cy="24.6" r="48.1"/>
	<path id="XMLID_24_" class="st1" d="M75.1,74.3c-27.4,0-49.7-22.3-49.7-49.7S47.7-25,75.1-25s49.6,22.3,49.6,49.6
		S102.4,74.3,75.1,74.3z M75.1-22C49.4-22,28.4-1.1,28.4,24.6S49.3,71.2,75,71.2s46.6-20.9,46.6-46.6S100.8-22,75.1-22z"/>
</g>
<g id="XMLID_38_">
</g>
<g id="XMLID_39_">
</g>
<g id="XMLID_40_">
</g>
<g id="XMLID_41_">
</g>
<g id="XMLID_42_">
</g>
<g id="XMLID_43_">
</g>
<g id="XMLID_44_">
</g>
<g id="XMLID_45_">
</g>
<g id="XMLID_46_">
</g>
<g id="XMLID_47_">
</g>
<g id="XMLID_48_">
</g>
<g id="XMLID_49_">
</g>
<g id="XMLID_50_">
</g>
<g id="XMLID_51_">
</g>
<g id="XMLID_52_">
</g>
</svg>
